<?xml version="1.0" encoding="UTF-8"?>
<svg id="Layer_1" data-name="Layer 1" xmlns="http://www.w3.org/2000/svg" viewBox="0 0 1000 203.29">
  <defs>
    <style>
      .cls-1 {
        fill: #431b1b;
        stroke-width: 0px;
      }
    </style>
  </defs>
  <g>
    <path class="cls-1" d="m158.45,156.35c-1.89-1.61-3.89-2.82-5.99-3.62-2.11-.81-4.32-1.21-6.64-1.21-4.48,0-8.14,1.44-10.95,4.32-2.82,2.88-4.22,6.61-4.22,11.19s1.37,8.09,4.11,10.97c2.74,2.88,6.2,4.32,10.37,4.32,2.43,0,4.74-.43,6.94-1.29,2.2-.86,4.31-2.16,6.33-3.9v7.55c-1.8,1.29-3.75,2.26-5.86,2.89-2.12.63-4.4.96-6.88.96-3.14,0-6.05-.52-8.71-1.55-2.67-1.03-5.01-2.54-7.03-4.55-2-1.96-3.54-4.28-4.61-6.94-1.08-2.66-1.61-5.5-1.61-8.51s.53-5.84,1.61-8.49c1.07-2.65,2.63-4.97,4.67-6.97,2.03-2.02,4.38-3.55,7.01-4.59,2.64-1.04,5.49-1.56,8.56-1.56,2.41,0,4.71.35,6.9,1.05,2.18.7,4.31,1.76,6.37,3.19l-.36,6.73Z"/>
    <path class="cls-1" d="m236.95,166.98c0,2.92-.55,5.68-1.64,8.28-1.1,2.6-2.69,4.92-4.79,6.96-2.11,2.04-4.5,3.6-7.15,4.69-2.66,1.08-5.44,1.63-8.36,1.63s-5.77-.55-8.46-1.64c-2.69-1.09-5.06-2.65-7.12-4.67-2.1-2.04-3.68-4.35-4.77-6.93-1.08-2.58-1.62-5.35-1.62-8.31s.54-5.71,1.62-8.31c1.09-2.6,2.67-4.93,4.77-6.99,2.1-2.04,4.47-3.59,7.13-4.66,2.65-1.06,5.47-1.6,8.44-1.6s5.76.53,8.41,1.6c2.65,1.07,5.02,2.62,7.11,4.66,2.1,2.08,3.69,4.42,4.79,7.03,1.1,2.61,1.64,5.36,1.64,8.27Zm-6.96,0c0-2.08-.37-4.05-1.13-5.92-.76-1.87-1.85-3.53-3.27-4.99-1.38-1.44-2.98-2.55-4.81-3.33-1.82-.77-3.75-1.16-5.77-1.16s-3.94.39-5.77,1.15c-1.82.76-3.45,1.88-4.87,3.34-1.42,1.44-2.51,3.1-3.25,4.97-.75,1.87-1.12,3.85-1.12,5.95s.37,4.04,1.12,5.89c.74,1.85,1.83,3.51,3.25,4.97,1.42,1.46,3.04,2.57,4.85,3.34,1.82.77,3.74,1.15,5.78,1.15s3.91-.38,5.71-1.15c1.8-.76,3.42-1.88,4.87-3.34,1.42-1.46,2.52-3.12,3.27-4.98.76-1.86,1.13-3.82,1.13-5.88Z"/>
    <path class="cls-1" d="m314.81,166.98c0,2.92-.55,5.68-1.64,8.28-1.1,2.6-2.69,4.92-4.79,6.96-2.11,2.04-4.5,3.6-7.15,4.69-2.66,1.08-5.44,1.63-8.36,1.63s-5.77-.55-8.46-1.64c-2.69-1.09-5.06-2.65-7.12-4.67-2.1-2.04-3.68-4.35-4.77-6.93-1.08-2.58-1.62-5.35-1.62-8.31s.54-5.71,1.62-8.31c1.09-2.6,2.67-4.93,4.77-6.99,2.1-2.04,4.47-3.59,7.13-4.66,2.65-1.06,5.47-1.6,8.44-1.6s5.76.53,8.41,1.6c2.65,1.07,5.02,2.62,7.11,4.66,2.1,2.08,3.69,4.42,4.79,7.03,1.1,2.61,1.64,5.36,1.64,8.27Zm-6.96,0c0-2.08-.37-4.05-1.13-5.92s-1.85-3.53-3.27-4.99c-1.38-1.44-2.98-2.55-4.81-3.33-1.82-.77-3.75-1.16-5.77-1.16s-3.94.39-5.77,1.15c-1.82.76-3.45,1.88-4.87,3.34-1.42,1.44-2.51,3.1-3.25,4.97-.75,1.87-1.12,3.85-1.12,5.95s.37,4.04,1.12,5.89c.74,1.85,1.83,3.51,3.25,4.97,1.42,1.46,3.04,2.57,4.85,3.34,1.82.77,3.74,1.15,5.78,1.15s3.91-.38,5.71-1.15c1.8-.76,3.42-1.88,4.87-3.34,1.42-1.46,2.52-3.12,3.27-4.98.76-1.86,1.13-3.82,1.13-5.88Z"/>
    <path class="cls-1" d="m356.83,169.06v18.38h-6.26v-41.07h9.31c2.73,0,4.85.18,6.35.53,1.51.35,2.8.94,3.86,1.77,1.27.99,2.25,2.27,2.94,3.84.69,1.57,1.04,3.29,1.04,5.16,0,3.29-.79,5.87-2.39,7.73-1.59,1.86-3.94,2.98-7.04,3.35l14.14,18.69h-7.55l-13.66-18.38h-.76Zm.42-5.19h1.2c3.54,0,5.88-.41,7.04-1.24,1.16-.82,1.74-2.28,1.74-4.38,0-2.26-.63-3.86-1.87-4.78-1.25-.93-3.55-1.39-6.92-1.39h-1.2v11.78Z"/>
    <path class="cls-1" d="m433.61,166.39h16.27c0,.28.01.67.03,1.18.06,1.33.09,2.23.09,2.69,0,5.78-1.66,10.27-4.97,13.47-3.31,3.2-7.98,4.8-14,4.8-3.37,0-6.37-.5-9-1.49-2.64-.99-4.95-2.49-6.93-4.49-1.95-1.98-3.44-4.31-4.48-6.99-1.04-2.67-1.56-5.53-1.56-8.58s.53-5.97,1.59-8.59c1.05-2.62,2.62-4.93,4.7-6.93,2-1.96,4.35-3.46,7.04-4.49,2.7-1.03,5.58-1.54,8.64-1.54,3.24,0,6.13.59,8.69,1.77,2.55,1.18,4.83,2.98,6.83,5.41l-4.88,3.68c-1.38-1.61-2.95-2.8-4.69-3.59-1.74-.79-3.68-1.18-5.83-1.18-4.46,0-8.09,1.43-10.9,4.28-2.82,2.85-4.22,6.56-4.22,11.12s1.41,8.4,4.22,11.29c2.81,2.89,6.47,4.34,10.95,4.34,3.82,0,6.82-.89,9.01-2.67,2.18-1.78,3.28-4.2,3.28-7.27v-.59h-9.88v-5.64Z"/>
    <path class="cls-1" d="m563.51,156.35c-1.89-1.61-3.89-2.82-5.99-3.62-2.11-.81-4.32-1.21-6.64-1.21-4.48,0-8.14,1.44-10.95,4.32-2.82,2.88-4.22,6.61-4.22,11.19s1.37,8.09,4.11,10.97c2.74,2.88,6.2,4.32,10.37,4.32,2.43,0,4.74-.43,6.94-1.29,2.2-.86,4.31-2.16,6.33-3.9v7.55c-1.8,1.29-3.75,2.26-5.86,2.89-2.12.63-4.4.96-6.88.96-3.14,0-6.05-.52-8.71-1.55-2.67-1.03-5.01-2.54-7.03-4.55-2-1.96-3.54-4.28-4.61-6.94-1.08-2.66-1.61-5.5-1.61-8.51s.53-5.84,1.61-8.49c1.07-2.65,2.63-4.97,4.67-6.97,2.03-2.02,4.38-3.55,7.01-4.59,2.64-1.04,5.49-1.56,8.56-1.56,2.41,0,4.71.35,6.9,1.05,2.18.7,4.31,1.76,6.37,3.19l-.36,6.73Z"/>
    <path class="cls-1" d="m642,166.98c0,2.92-.55,5.68-1.64,8.28-1.1,2.6-2.69,4.92-4.79,6.96-2.11,2.04-4.5,3.6-7.15,4.69-2.66,1.08-5.44,1.63-8.36,1.63s-5.77-.55-8.46-1.64c-2.69-1.09-5.06-2.65-7.12-4.67-2.1-2.04-3.68-4.35-4.77-6.93-1.08-2.58-1.62-5.35-1.62-8.31s.54-5.71,1.62-8.31c1.09-2.6,2.67-4.93,4.77-6.99,2.1-2.04,4.47-3.59,7.13-4.66,2.65-1.06,5.47-1.6,8.44-1.6s5.76.53,8.41,1.6c2.65,1.07,5.02,2.62,7.11,4.66,2.1,2.08,3.69,4.42,4.79,7.03,1.1,2.61,1.64,5.36,1.64,8.27Zm-6.96,0c0-2.08-.37-4.05-1.13-5.92-.76-1.87-1.85-3.53-3.27-4.99-1.38-1.44-2.98-2.55-4.81-3.33-1.82-.77-3.75-1.16-5.77-1.16s-3.94.39-5.77,1.15c-1.82.76-3.45,1.88-4.87,3.34-1.42,1.44-2.51,3.1-3.25,4.97-.75,1.87-1.12,3.85-1.12,5.95s.37,4.04,1.12,5.89c.74,1.85,1.83,3.51,3.25,4.97,1.42,1.46,3.04,2.57,4.85,3.34,1.82.77,3.74,1.15,5.78,1.15s3.91-.38,5.71-1.15c1.8-.76,3.42-1.88,4.87-3.34,1.42-1.46,2.52-3.12,3.27-4.98.76-1.86,1.13-3.82,1.13-5.88Z"/>
    <path class="cls-1" d="m677.76,187.43v-41.07h22.92v5.67h-16.24v10.24h16.24v5.86h-16.24v19.3h-6.68Z"/>
    <path class="cls-1" d="m736.02,187.43v-41.07h22.92v5.67h-16.24v10.24h16.24v5.86h-16.24v19.3h-6.68Z"/>
    <path class="cls-1" d="m794.28,187.43v-41.07h22.92v5.67h-16.24v10.3h16.24v5.86h-16.24v13.27h16.24v5.98h-22.92Z"/>
    <path class="cls-1" d="m852.96,187.43v-41.07h22.92v5.67h-16.24v10.3h16.24v5.86h-16.24v13.27h16.24v5.98h-22.92Z"/>
  </g>
  <g>
    <path class="cls-1" d="m37.97,112.64c-5.35-3.92-9.2-9.48-11.56-16.68-1.14-3.31-1.9-6.79-2.27-10.43-.37-3.64-.57-8.96-.57-15.97s.19-12.32.57-15.96c.37-3.64,1.13-7.12,2.27-10.43,2.36-7.19,6.22-12.75,11.56-16.68,5.35-3.92,11.95-6.12,19.8-6.6h.28c.38,0,.67.12.86.35.18.24.28.55.28.92v19.87c0,.47-.15.85-.43,1.14-.19.19-.45.33-.78.42-.34.1-.59.19-.78.29-3.31.94-5.63,3.36-6.96,7.24-.47,1.52-.8,3.55-.99,6.1-.19,2.56-.28,7.01-.28,13.34s.09,10.79.28,13.34c.19,2.55.52,4.59.99,6.1,1.42,4.16,4.03,6.72,7.8,7.66.76.19,1.14.67,1.14,1.42v19.87c0,.47-.15.83-.43,1.06-.28.24-.61.31-.99.21-7.85-.47-14.45-2.67-19.8-6.6Zm37.54-60.82c-.28,0-.57-.1-.85-.28-.28-.19-.47-.47-.57-.85-2.18-4.54-5.11-7.28-8.81-8.23-.85-.28-1.27-.8-1.27-1.56v-19.58c0-.47.14-.85.42-1.14s.61-.38.99-.28c7.38.57,13.67,2.69,18.88,6.38,5.2,3.69,9.04,8.75,11.5,15.19.09.19.14.42.14.71,0,.57-.28.99-.85,1.28l-18.88,8.23c-.19.1-.43.14-.71.14Zm-10.36,67.41c-.38,0-.67-.14-.85-.42-.19-.29-.28-.62-.28-.99v-19.59c0-.75.42-1.28,1.27-1.56,3.7-.94,6.63-3.69,8.81-8.23.47-1.04,1.18-1.37,2.13-.99l18.88,8.23c.76.38.99,1.04.71,1.99-2.46,6.43-6.3,11.5-11.5,15.19-5.2,3.69-11.49,5.82-18.88,6.38h-.28Z"/>
    <path class="cls-1" d="m121.49,117.39c-.28-.28-.43-.62-.43-.99V22.73c0-.47.15-.83.43-1.07.28-.23.61-.35.99-.35h22.13c.47,0,.83.12,1.07.35.24.24.36.59.36,1.07v93.67c0,.38-.12.71-.36.99-.24.28-.59.42-1.07.42h-22.13c-.38,0-.71-.14-.99-.42Zm29.8-34.06c-.28-.28-.42-.62-.42-.99v-17.74c0-.47.14-.83.42-1.06.28-.24.62-.36.99-.36h7.24c3.88,0,6.84-.9,8.87-2.7,2.04-1.8,3.05-4.35,3.05-7.66s-1.01-5.87-3.05-7.67c-2.04-1.79-4.99-2.7-8.87-2.7h-7.24c-.37,0-.71-.14-.99-.42-.28-.28-.42-.62-.42-.99v-18.3c0-.47.14-.83.42-1.07.28-.23.62-.35.99-.35h9.08c7.48,0,13.86,1.32,19.16,3.97,5.3,2.65,9.3,6.32,11.99,11,2.7,4.68,4.05,10.1,4.05,16.25s-1.33,11.45-3.98,16.18c-2.65,4.73-6.64,8.42-11.99,11.07-5.35,2.65-11.89,3.97-19.65,3.97h-8.66c-.37,0-.71-.14-.99-.42Zm20.09,34.2c-.34-.19-.59-.57-.78-1.14l-11.64-26.54-.15-.57c0-.57.43-.94,1.28-1.14,4.64,0,8.66-.33,12.07-.99,3.4-.66,6.53-1.66,9.36-2.98.19-.1.47-.15.86-.15.47,0,.8.24.99.71l14.9,31.51.15.57c0,.29-.1.52-.28.71-.19.19-.47.28-.86.28h-24.55c-.57,0-1.01-.09-1.34-.28Z"/>
    <path class="cls-1" d="m225.09,117.39c-.28-.28-.43-.62-.43-.99V22.73c0-.47.15-.83.43-1.07.28-.23.61-.35.99-.35h22c.47,0,.83.12,1.07.35.23.24.35.59.35,1.07v93.67c0,.38-.12.71-.35.99-.24.28-.59.42-1.07.42h-22c-.38,0-.71-.14-.99-.42Zm29.66-75.36c-.28-.28-.43-.62-.43-.99v-18.3c0-.47.15-.83.43-1.07.28-.23.61-.35.99-.35h33.07c.47,0,.82.12,1.06.35.24.24.36.59.36,1.07v18.3c0,.38-.12.71-.36.99s-.59.42-1.06.42h-33.07c-.38,0-.71-.14-.99-.42Zm0,37.04c-.28-.28-.43-.62-.43-.99v-17.88c0-.47.15-.83.43-1.06s.61-.36.99-.36h26.11c.47,0,.82.12,1.06.36.24.24.36.59.36,1.06v17.88c0,.38-.12.71-.36.99-.24.28-.59.42-1.06.42h-26.11c-.38,0-.71-.14-.99-.42Zm0,38.32c-.28-.28-.43-.62-.43-.99v-18.31c0-.47.15-.83.43-1.06s.61-.36.99-.36h33.07c.47,0,.82.12,1.06.36s.36.59.36,1.06v18.31c0,.38-.12.71-.36.99s-.59.42-1.06.42h-33.07c-.38,0-.71-.14-.99-.42Z"/>
    <path class="cls-1" d="m311.17,117.39c-.15-.28-.16-.62-.07-.99l32.36-90.55c.38-.85.9-1.28,1.56-1.28.38,0,.71.12.99.36.28.24.47.59.57,1.06l8.66,30.23c.28.57.28,1.18,0,1.84l-7.1,22.57h13.34c.85,0,1.42.38,1.71,1.14l5.11,18.17.14.42c0,.38-.12.66-.36.85-.24.19-.59.29-1.06.29h-24.84l-4.68,14.9c-.28.94-.89,1.42-1.84,1.42h-23.56c-.47,0-.78-.14-.92-.42Zm67.98.28c-.24-.1-.45-.24-.64-.42-.28-.38-.52-.9-.71-1.56l-27.39-92.68-.14-.57c0-.37.12-.66.36-.85.23-.19.58-.28,1.06-.28h18.17c.94,0,1.56.47,1.84,1.42l32.79,93.67.14.42c0,.29-.09.52-.28.71s-.47.28-.85.28h-23.56c-.29,0-.55-.05-.78-.14Z"/>
    <path class="cls-1" d="m428.47,117.39c-.28-.28-.43-.62-.43-.99V27.83c0-.37.12-.71.36-.99.24-.28.5-.42.78-.42.47,0,.85.33,1.13.99l20.15,47.69c.19.47.28,1.05.28,1.7v39.6c0,.38-.12.71-.36.99-.24.28-.59.42-1.06.42h-19.87c-.38,0-.71-.14-.99-.42Zm38.75-14.76l-33.92-79.62c-.1-.19-.15-.43-.15-.71s.12-.52.36-.71c.24-.19.54-.28.92-.28h16.18c1.22,0,2.03.47,2.41,1.42l32.22,73.09c.47.57.47,1.23,0,1.99l-2.14,4.97c-.47,1.14-1.32,1.71-2.55,1.71h-10.65c-1.13,0-2.04-.62-2.69-1.85Zm32.92,14.76c-.28-.28-.42-.62-.42-.99v-50.52h-.71l-10.08,22.99c-.09.28-.21.5-.36.64-.14.14-.31.21-.49.21-.38,0-.71-.28-.99-.85l-8.66-19.73c-.19-.28-.28-.62-.28-.99s.09-.71.28-.99l19.17-44.42c.37-.94,1.18-1.42,2.41-1.42h21c.47,0,.83.12,1.07.35.24.24.36.59.36,1.07v93.67c0,.38-.12.71-.36.99-.24.28-.59.42-1.07.42h-19.87c-.37,0-.7-.14-.99-.42Z"/>
    <path class="cls-1" d="m575.65,117.39c-.28-.28-.43-.62-.43-.99v-35.62l-29.52-57.9-.15-.57c0-.28.1-.52.28-.71.19-.19.47-.28.86-.28h22.14c1.03,0,1.84.47,2.41,1.42l28.52,57.62c.28.66.43,1.23.43,1.7v34.35c0,.38-.12.71-.36.99-.24.28-.59.42-1.07.42h-22.13c-.38,0-.71-.14-.99-.42Zm15.32-65c-.28-.57-.28-1.23,0-1.99l13.63-27.67c.37-.94,1.13-1.42,2.27-1.42h21.85c.47,0,.8.14.99.42s.19.66,0,1.14l-26.11,51.23c-.28.57-.61.85-.99.85s-.7-.28-.99-.85l-10.64-21.71Z"/>
    <path class="cls-1" d="m711.4,112.64c-5.35-3.92-9.2-9.48-11.56-16.68-1.14-3.31-1.9-6.79-2.27-10.43-.37-3.64-.57-8.96-.57-15.97s.19-12.32.57-15.96c.37-3.64,1.13-7.12,2.27-10.43,2.36-7.19,6.22-12.75,11.56-16.68,5.35-3.92,11.95-6.12,19.8-6.6h.28c.38,0,.67.12.86.35.18.24.28.55.28.92v19.87c0,.47-.15.85-.43,1.14-.19.19-.45.33-.78.42-.34.1-.59.19-.78.29-3.31.94-5.63,3.36-6.96,7.24-.47,1.52-.8,3.55-.99,6.1-.19,2.56-.28,7.01-.28,13.34s.09,10.79.28,13.34c.19,2.55.52,4.59.99,6.1,1.42,4.16,4.03,6.72,7.8,7.66.76.19,1.14.67,1.14,1.42v19.87c0,.47-.15.83-.43,1.06-.28.24-.61.31-.99.21-7.85-.47-14.45-2.67-19.8-6.6Zm37.54-60.82c-.28,0-.57-.1-.85-.28-.28-.19-.47-.47-.57-.85-2.18-4.54-5.11-7.28-8.81-8.23-.85-.28-1.27-.8-1.27-1.56v-19.58c0-.47.14-.85.42-1.14.28-.28.61-.38.99-.28,7.38.57,13.67,2.69,18.88,6.38,5.2,3.69,9.04,8.75,11.5,15.19.09.19.14.42.14.71,0,.57-.28.99-.85,1.28l-18.88,8.23c-.19.1-.43.14-.71.14Zm-10.36,67.41c-.38,0-.67-.14-.85-.42-.19-.29-.28-.62-.28-.99v-19.59c0-.75.42-1.28,1.27-1.56,3.7-.94,6.63-3.69,8.81-8.23.47-1.04,1.18-1.37,2.13-.99l18.88,8.23c.76.38.99,1.04.71,1.99-2.46,6.43-6.3,11.5-11.5,15.19-5.2,3.69-11.49,5.82-18.88,6.38h-.28Z"/>
    <path class="cls-1" d="m803.29,108.3c-6.05-6.62-9.08-16.04-9.08-28.24V22.73c0-.47.15-.83.43-1.07.28-.23.61-.35.99-.35h22.28c.47,0,.83.12,1.07.35.23.24.35.59.35,1.07v59.18c0,4.07.83,7.36,2.49,9.86,1.65,2.51,3.99,4.14,7.02,4.9.86.28,1.28.81,1.28,1.56v19.73c0,.47-.12.83-.36,1.06s-.54.31-.92.21c-10.97-.66-19.49-4.3-25.55-10.93Zm32.93,10.93c-.38,0-.67-.12-.85-.36-.19-.24-.29-.54-.29-.92v-19.73c0-.75.43-1.28,1.28-1.56,3.03-.66,5.38-2.27,7.03-4.82,1.65-2.56,2.48-5.86,2.48-9.94V22.73c0-.47.15-.83.43-1.07.28-.23.61-.35.99-.35h22.28c.47,0,.83.12,1.07.35.23.24.35.59.35,1.07v57.34c0,12.2-3.02,21.62-9.08,28.24-6.05,6.63-14.52,10.27-25.4,10.93h-.28Z"/>
    <path class="cls-1" d="m900.94,117.39c-.28-.28-.43-.62-.43-.99V22.73c0-.47.15-.83.43-1.07.28-.23.61-.35.99-.35h22.13c.47,0,.83.12,1.07.35.24.24.36.59.36,1.07v93.67c0,.38-.12.71-.36.99s-.59.42-1.07.42h-22.13c-.38,0-.71-.14-.99-.42Zm29.8-32.36c-.28-.28-.42-.61-.42-.99v-18.3c0-.47.14-.83.42-1.07.28-.23.62-.35.99-.35h7.24c3.98,0,7.03-.97,9.15-2.91,2.13-1.94,3.19-4.61,3.19-8.02s-1.07-6.08-3.19-8.02-5.18-2.91-9.15-2.91h-7.24c-.37,0-.71-.14-.99-.42s-.42-.62-.42-.99v-18.3c0-.47.14-.83.42-1.07.28-.23.62-.35.99-.35h8.52c7.95,0,14.62,1.35,20.02,4.04,5.39,2.7,9.44,6.46,12.13,11.28,2.7,4.83,4.04,10.41,4.04,16.75s-1.37,11.78-4.12,16.61c-2.74,4.82-6.81,8.61-12.2,11.35-5.39,2.74-12.02,4.11-19.87,4.11h-8.52c-.37,0-.71-.14-.99-.42Z"/>
  </g>
</svg>